<?xml version="1.0" encoding="utf-8"?>
<!-- Generator: Adobe Illustrator 25.0.0, SVG Export Plug-In . SVG Version: 6.00 Build 0)  -->
<svg version="1.1"
	 id="Layer_1" inkscape:version="0.48.4 r9939" sodipodi:docname="New document 4" xmlns:cc="http://creativecommons.org/ns#" xmlns:dc="http://purl.org/dc/elements/1.1/" xmlns:inkscape="http://www.inkscape.org/namespaces/inkscape" xmlns:rdf="http://www.w3.org/1999/02/22-rdf-syntax-ns#" xmlns:sodipodi="http://sodipodi.sourceforge.net/DTD/sodipodi-0.dtd" xmlns:svg="http://www.w3.org/2000/svg"
	 xmlns="http://www.w3.org/2000/svg" xmlns:xlink="http://www.w3.org/1999/xlink" x="0px" y="0px" viewBox="0 0 127 45"
	 style="enable-background:new 0 0 127 45;" xml:space="preserve">
<style type="text/css">
	.st0{fill-rule:evenodd;clip-rule:evenodd;fill:#ED1C24;}
</style>
<g>
	<path class="st0" d="M65.1,9.2c0,3.8,0,3.8,0,3.8c-5.2,0-5.2,0-5.2,0c0-3.8,0-3.8,0-3.8c0-1.1-0.5-1.6-1.5-1.6c-2.7,0-2.7,0-2.7,0
		c0,2.5,0,2.5,0,2.5c1.1,0,1.1,0,1.1,0c0.1,0,0.1,0.1,0.1,0.1c0,10.7,0,10.7,0,10.7c2.9,0,2.9,0,2.9,0c0-5.4,0-5.4,0-5.4
		c5.2,0,5.2,0,5.2,0c0,5.4,0,5.4,0,5.4c2.9,0,2.9,0,2.9,0c0-10.7,0-10.7,0-10.7l0.1-0.1c1.1,0,1.1,0,1.1,0c0-2.5,0-2.5,0-2.5
		c-2.6,0-2.6,0-2.6,0C65.5,7.6,65.1,8.1,65.1,9.2z"/>
	<path class="st0" d="M76.9,7.4L76.9,7.4c-3.9,0-7.1,3-7.1,6.8c0,3.9,3.1,7,7.1,7H77c0,0,6.9,0,7-7C84,7.4,76.9,7.4,76.9,7.4z
		 M76.9,18.5L76.9,18.5c-2.3,0-4-1.9-4-4.3c0-2.2,1.7-4.1,3.9-4.1h0.1c0,0,3.9-0.1,4,4C81,18.5,76.9,18.5,76.9,18.5z"/>
	<path class="st0" d="M85.7,19.4c0,1,0.5,1.5,1.5,1.5c1.8,0,2.7,0,3.1,0h0.2h0.2c0.1,0,0.1,0,0.1,0c2.8,0,4.8-1.5,4.8-4.1
		c0-1.3-0.7-2.5-1.8-3c0.6-0.6,1.2-1.4,1.2-2.7c0-2.2-1.6-3.6-4.3-3.6h-0.1h-1.9c-4.1,0-4.1,0-4.1,0c0,2.5,0,2.5,0,2.5
		c1.2,0,1.2,0,1.2,0S85.7,19.4,85.7,19.4z M88.6,10.2c1,0,1.5,0,1.7,0h0.2l0,0l0,0c0.9,0,1.4,0.5,1.4,1.3c0,0.8-0.5,1.4-1.4,1.4
		h-0.1h-1c-0.8,0-0.8,0-0.8,0C88.6,10.2,88.6,10.2,88.6,10.2z M88.6,15.3c0.6,0,1,0,1.3,0h0.6l0,0c0.2,0,0.2,0,0.2,0
		c1,0,1.6,0.6,1.6,1.6s-0.6,1.5-1.6,1.5h-0.3h-0.9c-0.9,0-0.9,0-0.9,0c-0.2,0-0.2,0-0.2-0.1C88.6,15.3,88.6,15.3,88.6,15.3z"/>
	<path class="st0" d="M105.4,19.7c0.2,1,0.7,1.3,1.7,1.3c1.7,0,1.7,0,1.7,0c0-2.6,0-2.6,0-2.6c-0.5,0-0.5,0-0.5,0
		c-0.2,0-0.2,0-0.4-0.1C104,7.6,104,7.6,104,7.6h-1.5h-0.2c-1.2,0-1.2,0-1.2,0c-3.9,10.6-3.9,10.6-3.9,10.6
		c-0.1,0.1-0.1,0.1-0.4,0.1c-0.6,0-0.6,0-0.6,0c0,2.6,0,2.6,0,2.6c1.9,0,1.9,0,1.9,0c1,0,1.5-0.4,1.7-1.2c0.8-2.2,0.8-2.2,0.8-2.2
		c0.5,0,0.9,0,1.3,0h0.6h0.3c1.6,0,1.6,0,1.6,0C105.4,19.7,105.4,19.7,105.4,19.7z M102.5,15.1h-0.2c-1,0-1,0-1,0c1-2.7,1-2.7,1-2.7
		c0-0.4,0.2-0.7,0.2-1c0.1,0.2,0.2,0.6,0.2,1c1,2.7,1,2.7,1,2.7H102.5z"/>
	<path class="st0" d="M67.8,35.4c0-9,0-9,0-9c0-1-0.6-1.6-1.6-1.6c-10.5,0-10.5,0-10.5,0c0,2.5,0,2.5,0,2.5c1.2,0,1.2,0,1.2,0
		c0,10.9,0,10.9,0,10.9c2.9,0,2.9,0,2.9,0c0-10.9,0-10.9,0-10.9c4.8,0,4.8,0,4.8,0c0.1,0,0.1,0.2,0.1,0.2c0,9.2,0,9.2,0,9.2
		c0,1,0.5,1.5,1.6,1.5c2.5,0,2.5,0,2.5,0c0-2.6,0-2.6,0-2.6C67.9,35.5,67.9,35.5,67.8,35.4C67.8,35.5,67.8,35.5,67.8,35.4z"/>
	<path class="st0" d="M78.1,24.7l-1.4-0.2h-0.1c-3.9,0-6.9,3-6.9,6.8c0,3.9,3.1,7,6.9,7h0.1l1.4-0.2c3.3-0.6,5.6-3.4,5.6-6.9
		C83.7,28.1,81.4,25.3,78.1,24.7z M78.2,35.3l-1.5,0.3h-0.1c-2.2,0-3.9-1.9-3.9-4.3c0-2.2,1.7-4.1,3.9-4.1h0.1l1.5,0.3
		c1.5,0.6,2.4,2.1,2.4,3.8C80.6,33.2,79.7,34.7,78.2,35.3z"/>
	<path class="st0" d="M98.7,26.4c0,9,0,9,0,9c0,0.1,0,0.1-0.1,0.1c-3.6,0-3.6,0-3.6,0c0-10.7,0-10.7,0-10.7c-2.9,0-2.9,0-2.9,0
		c0,10.7,0,10.7,0,10.7c-3.6,0-3.6,0-3.6,0c-0.1,0-0.1,0-0.1-0.1c0-9,0-9,0-9c0-1-0.5-1.6-1.5-1.6c-2.7,0-2.7,0-2.7,0
		c0,2.5,0,2.5,0,2.5c1.1,0,1.1,0,1.1,0c0.1,0,0.1,0.2,0.1,0.2c0,9.2,0,9.2,0,9.2c0,1,0.5,1.5,1.6,1.5c13.1,0,13.1,0,13.1,0
		c1,0,1.5-0.5,1.5-1.5c0-9.2,0-9.2,0-9.2s0-0.2,0.2-0.2c1.1,0,1.1,0,1.1,0c0-2.5,0-2.5,0-2.5c-2.7,0-2.7,0-2.7,0
		C99.1,24.8,98.7,25.3,98.7,26.4z"/>
	<path class="st0" d="M115.7,28.5c0-2.2,0-2.2,0-2.2c0-1-0.4-1.4-1.5-1.4c-9.1,0-9.1,0-9.1,0c-1,0-1.4,0.5-1.4,1.4
		c0,2.2,0,2.2,0,2.2c2.7,0,2.7,0,2.7,0c0-1,0-1,0-1c0-0.2,0-0.2,0.2-0.2c1.7,0,1.7,0,1.7,0c0,10.9,0,10.9,0,10.9c2.9,0,2.9,0,2.9,0
		c0-10.9,0-10.9,0-10.9c1.7,0,1.7,0,1.7,0c0.2,0,0.2,0,0.2,0.2c0,1,0,1,0,1S115.7,28.5,115.7,28.5z"/>
	<path class="st0" d="M126.7,35.5c-0.2,0-0.2,0-0.4-0.1c-3.9-10.6-3.9-10.6-3.9-10.6h-1.5h-0.2c-1.2,0-1.2,0-1.2,0l0,0
		c-3.9,10.6-3.9,10.6-3.9,10.6c-0.2,0.1-0.2,0.1-0.4,0.1c-0.6,0-0.6,0-0.6,0c0,2.6,0,2.6,0,2.6c1.9,0,1.9,0,1.9,0
		c1,0,1.5-0.4,1.7-1.3c0.8-2,0.8-2,0.8-2c0.5,0,0.9,0,1.3,0h0.6h0.3c1.6,0,1.6,0,1.6,0c0.8,2,0.8,2,0.8,2c0.2,1,0.7,1.3,1.7,1.3
		c1.7,0,1.7,0,1.7,0c0-2.6,0-2.6,0-2.6S126.7,35.5,126.7,35.5z M120.9,32.3h-0.2c-1,0-1,0-1,0c1-2.7,1-2.7,1-2.7
		c0-0.4,0.1-0.7,0.2-1c0.1,0.2,0.2,0.6,0.2,1c1,2.7,1,2.7,1,2.7H120.9z"/>
	<path class="st0" d="M37.4,13.6c-0.2-0.2-0.4-0.3-0.5-0.3c-0.2,0.1-0.2,0.2-0.2,0.6v17c0,0.3,0.1,0.6,0.2,0.6
		c0.2,0.1,0.3,0,0.5-0.2c8.3-8.1,8.3-8.1,8.3-8.1c0.5-0.4,0.5-1.1,0-1.6C37.4,13.6,37.4,13.6,37.4,13.6z"/>
	<path class="st0" d="M23.9,0.2L23.3,0h-0.6l-0.6,0.2c-8.6,8.3-8.6,8.3-8.6,8.3C13.2,9,13.4,9.4,14,9.4h3.7c0.6,0,1.1,0.5,1.1,1.1
		c0,6.2,0,6.2,0,6.2c0,0.6,0.5,1,1.1,1c6.2,0,6.2,0,6.2,0c0.7,0,1.2-0.5,1.2-1c0-6.2,0-6.2,0-6.2c0-0.6,0.5-1.1,1.1-1.1
		c3.6,0,3.6,0,3.6,0c0.6,0,0.7-0.3,0.4-0.8C23.9,0.2,23.9,0.2,23.9,0.2z"/>
	<path class="st0" d="M8.8,13.3c-8.4,8.2-8.4,8.2-8.4,8.2c-0.5,0.5-0.5,1.2,0,1.6c8.4,8.3,8.4,8.3,8.4,8.3c0.2,0.2,0.5,0.2,0.6,0.2
		c0.2-0.1,0.2-0.2,0.2-0.6V13.7c0-0.3-0.1-0.5-0.2-0.6C9.2,13,9,13.1,8.8,13.3z"/>
	<path class="st0" d="M31.8,35.6h-3.3c-0.6,0-1-0.5-1-1.2c0-6.6,0-6.6,0-6.6c0-0.6-0.5-1.1-1.2-1.1c-6.2,0-6.2,0-6.2,0
		c-0.6,0-1.1,0.5-1.1,1.1c0,6.6,0,6.6,0,6.6c0,0.7-0.5,1.2-1.1,1.2c-3.6,0-3.6,0-3.6,0c-0.6,0-0.8,0.3-0.3,0.7
		c8.3,8.2,8.3,8.2,8.3,8.2c0.2,0.2,0.6,0.4,0.8,0.4c0.3,0,0.6-0.1,0.8-0.4c8.3-8.2,8.3-8.2,8.3-8.2C32.6,36,32.4,35.6,31.8,35.6z"/>
</g>
</svg>
